<?xml version="1.0" encoding="UTF-8" standalone="no"?>
<svg
   width="2270px"
   height="1000px"
   xmlns:dc="http://purl.org/dc/elements/1.1/"
   xmlns:cc="http://creativecommons.org/ns#"
   xmlns:rdf="http://www.w3.org/1999/02/22-rdf-syntax-ns#"
   xmlns:svg="http://www.w3.org/2000/svg"
   xmlns="http://www.w3.org/2000/svg"
   xmlns:sodipodi="http://sodipodi.sourceforge.net/DTD/sodipodi-0.dtd"
   xmlns:inkscape="http://www.inkscape.org/namespaces/inkscape"
   inkscape:version="1.0 (4035a4fb49, 2020-05-01)"
   sodipodi:docname="nano.svg"
   xml:space="preserve"
   style="enable-background:new 0 0 1770.2 780.1;"
   viewBox="0 0 1770.2 780.1"
   y="0px"
   x="0px"
   id="Layer_1"
   version="1.1"><metadata
   id="metadata17"><rdf:RDF><cc:Work
       rdf:about=""><dc:format>image/svg+xml</dc:format><dc:type
         rdf:resource="http://purl.org/dc/dcmitype/StillImage" /></cc:Work></rdf:RDF></metadata><defs
   id="defs15" /><sodipodi:namedview
   inkscape:current-layer="Layer_1"
   inkscape:window-maximized="1"
   inkscape:window-y="-9"
   inkscape:window-x="-9"
   inkscape:cy="390.04999"
   inkscape:cx="885.09998"
   inkscape:zoom="0.68240879"
   showgrid="false"
   id="namedview13"
   inkscape:window-height="1001"
   inkscape:window-width="1920"
   inkscape:pageshadow="2"
   inkscape:pageopacity="0"
   guidetolerance="10"
   gridtolerance="10"
   objecttolerance="10"
   borderopacity="1"
   bordercolor="#666666"
   pagecolor="#ffffff" />
<style
   id="style2"
   type="text/css">
	.st0{fill:#4A90E2;}
	.st1{fill:#000034;}
	.st2{fill:#FFFFFF;}
</style>
<g
   style="fill:#000000"
   id="g10">
	<path
   style="fill:#000000"
   id="path4"
   d="M985.7,390c0,55.6-45.1,100.6-100.6,100.6S784.4,445.6,784.4,390c0-75.5-25.2-100.6-100.6-100.6   S583.2,314.6,583.2,390c0,55.6-45.1,100.6-100.6,100.6S381.9,445.6,381.9,390c0-55.6,45.1-100.6,100.6-100.6   c75.5,0,100.6-25.2,100.6-100.6c0-55.6,45.1-100.6,100.6-100.6s100.6,45.1,100.6,100.6c0,75.5,25.2,100.6,100.6,100.6   C940.7,289.4,985.7,334.5,985.7,390z"
   class="st0" />
	<circle
   style="fill:#000000"
   id="circle6"
   r="100.6"
   cy="591.3"
   cx="281.2"
   class="st0" />
	<path
   style="fill:#000000"
   id="path8"
   d="M1589.6,188.7c0,55.6-45.1,100.6-100.6,100.6c-75.5,0-100.6,25.2-100.6,100.6c0,55.6-45.1,100.6-100.6,100.6   c-75.5,0-100.6,25.2-100.6,100.6c0,55.6-45.1,100.6-100.6,100.6c-55.6,0-100.6-45.1-100.6-100.6c0-55.6,45.1-100.6,100.6-100.6   c75.5,0,100.6-25.2,100.6-100.6c0-55.6,45.1-100.6,100.6-100.6c75.5,0,100.6-25.2,100.6-100.6c0-55.6,45.1-100.6,100.6-100.6   C1544.5,88.1,1589.6,133.2,1589.6,188.7z"
   class="st0" />
</g>
</svg>
